{"title":"De Krokodillenbende 2009 DVDrip dutch Klam","uid":6980764,"size":1263023276,"categoryP":"video","categoryS":"movies","magnet":"?xt=urn:btih:efff3ca31f1304c8a39aad613901e8b04f41b76b&amp;dn=De+Krokodillenbende+2009+DVDrip+dutch+Klam&amp;tr=udp%3A%2F%2Ftracker.openbittorrent.com%3A80&amp;tr=udp%3A%2F%2Fopen.demonii.com%3A1337&amp;tr=udp%3A%2F%2Ftracker.coppersurfer.tk%3A6969&amp;tr=udp%3A%2F%2Fexodus.desync.com%3A6969","seeders":1,"leechers":0,"uploader":"Klambake","files":-1,"time":1327397476,"description":"With: Nick Romeo Reimann, Fabian Halbig and Manuel Steitz\n\nDe tienjarige jongen, Hannes, leeft samen met zijn moeder. Hij is opgegroeid in zijn wijk en heeft normale vrienden. Maar hij wil zich aansluiten bij de coolste jeugdgroep van de stad, de voorstad-krokodillen. Ook Kai wil zich aansluiten bij de groep, maar jammer genoeg zit hij in een rolstoel. Hij gelooft niet dat hij wordt geaccepteerd. Maar de krokodillen zien dit over het hoofd en geven hem toch een kans...\n\nNederlands gesproken/Dutch spoken\n\n------------------------ Dutch Friends ------------------------\n---------------------------------------------------------------\n- Bezoek ook eens mijn vrienden op: &lt;a href=&quot; http://www.Film-Test.nl&quot; rel=&quot;nofollow&quot; target=&quot;_NEW&quot;&gt; http://www.Film-Test.nl&lt;/a&gt; --\n----- voor mijn Nederlandse Sync. ondertitels ---- en meer ----\n------- http://www.Film-Test.nl ---- voor Films en meer -------\n---------------------------------------------------------------\n\nGeneral:\n\nComplete name                    : De Krokodillenbende\\De Krokodillenbende.avi\nFormat                           : AVI\nFormat/Info                      : Audio Video Interleave\nFile size                        : 1.18 GiB\nDuration                         : 1h 32mn\nOverall bit rate                 : 1 823 Kbps\n\nVideo:\n\nFormat                           : MPEG-4 Visual\nFormat profile                   : Simple@L3\nFormat settings, BVOP            : No\nFormat settings, QPel            : No\nFormat settings, GMC             : No warppoints\nFormat settings, Matrix          : Default (H.263)\nCodec ID                         : XVID\nCodec ID/Hint                    : XviD\nDuration                         : 1h 32mn\nBit rate                         : 1 588 Kbps\nWidth                            : 652 pixels\nHeight                           : 352 pixels\nDisplay aspect ratio             : 1.852\nFrame rate                       : 25.000 fps\nColor space                      : YUV\nChroma subsampling               : 4:2:0\nBit depth                        : 8 bits\nScan type                        : Progressive\nCompression mode                 : Lossy\nBits/(Pixel*Frame)               : 0.277\nStream size                      : 1.02 GiB (87%)\nWriting library                  : XviD 1.1.2 (UTC 2006-11-01)\n\nAudio:\n\nFormat                           : AC-3\nFormat/Info                      : Audio Coding 3\nMode extension                   : CM (complete main)\nCodec ID                         : 2000\nDuration                         : 1h 32mn\nBit rate mode                    : Constant\nBit rate                         : 224 Kbps\nChannel(s)                       : 2 channels\nChannel positions                : Front: L R\nSampling rate                    : 48.0 KHz\nBit depth                        : 16 bits\nCompression mode                 : Lossy\nStream size                      : 148 MiB (12%)\nAlignment                        : Aligned on interleaves\nInterleave, duration             : 32 ms (0.80 video frame)\nInterleave, preload duration     : 160 ms\n\n","torrent":{"xt":"urn:btih:efff3ca31f1304c8a39aad613901e8b04f41b76b","amp;dn":"De+Krokodillenbende+2009+DVDrip+dutch+Klam","amp;tr":["udp%3A%2F%2Ftracker.openbittorrent.com%3A80","udp%3A%2F%2Fopen.demonii.com%3A1337","udp%3A%2F%2Ftracker.coppersurfer.tk%3A6969","udp%3A%2F%2Fexodus.desync.com%3A6969"],"infoHash":"efff3ca31f1304c8a39aad613901e8b04f41b76b","infoHashBuffer":{"type":"Buffer","data":[239,255,60,163,31,19,4,200,163,154,173,97,57,1,232,176,79,65,183,107]},"announce":[],"urlList":[]}}